<svg class="svg-ico-prasby" xmlns="http://www.w3.org/2000/svg" width="68" height="16" viewBox="0 0 68 16"><path d="M1596,5241.29a5.543,5.543,0,1,1-5.54-5.72A5.629,5.629,0,0,1,1596,5241.29Zm-23.09-5.69a3.438,3.438,0,0,1,3.26-2.47h6.37a1.066,1.066,0,0,0,0-2.13h-6.37a5.589,5.589,0,0,0-5.49,5.66v1.06h10.67a3.507,3.507,0,0,1-3.27,2.55h-6.27a1.065,1.065,0,0,0,0,2.13h6.27a5.627,5.627,0,0,0,5.49-5.74v-1.06h-10.66Zm-9.07-4.6h-1.9a5.582,5.582,0,0,0-5.49,5.66v4.68a1.03,1.03,0,1,0,2.06,0v-3.62h8.76v3.62a1.03,1.03,0,1,0,2.06,0v-4.68A5.582,5.582,0,0,0,1563.84,5231Zm-5.17,4.6a3.45,3.45,0,0,1,3.27-2.47h1.9a3.45,3.45,0,0,1,3.27,2.47h-8.44Zm-3.56,1.06a5.589,5.589,0,0,0-5.49-5.66h-1.91a5.589,5.589,0,0,0-5.49,5.66v4.69a1.035,1.035,0,1,0,2.07,0v-3.63h3.69l5.46,4.45a0.945,0.945,0,0,0,.63.23,1.018,1.018,0,0,0,.81-0.4,1.093,1.093,0,0,0-.16-1.5l-3.41-2.78h3.8v-1.06Zm-10.66-1.06a3.448,3.448,0,0,1,3.26-2.47h1.91a3.429,3.429,0,0,1,3.26,2.47h-8.43Zm-9.06-4.6h-6.36a1.066,1.066,0,0,0,0,2.13h6.36a3.45,3.45,0,0,1,3.27,2.47H1528v5.74a1.031,1.031,0,1,0,2.06,0v-3.62h10.82v-1.06A5.582,5.582,0,0,0,1535.39,5231Z" transform="translate(-1528 -5231)"></path></svg>