<!-- Generator: Adobe Illustrator 22.0.1, SVG Export Plug-In . SVG Version: 6.00 Build 0)  -->
<svg xmlns="http://www.w3.org/2000/svg" xmlns:xlink="http://www.w3.org/1999/xlink" version="1.1" id="Layer_2_copy" x="0px" y="0px" viewBox="0 0 24 24" style="enable-background:new 0 0 24 24;" width="60" height="60" xml:space="preserve">
<style type="text/css">
    path{fill:#6bdbbc;stroke:#333399;stroke-width:0.8;}
	.st0{fill:none;stroke-width:0}
</style>
<path class="st0" d="M0,0h24v24H0V0z"/>
<path d="M19.5,5.4C19.5,5.4,19.4,5.3,19.5,5.4C17.8,3.1,14.9,2,12,2v1.5C6.5,3.5,2,7.3,2,12c0,5.5,4.5,10,10,10c-2.8,0-5-2.2-5-5  s2.2-5,5-5c2.9,0,5.7-1.1,7.4-3.2c0,0,0.1-0.1,0.1-0.1c0.3-0.5,0.5-1,0.5-1.6C19.9,6.4,19.7,5.9,19.5,5.4z M14.5,5.5  c-0.6,0-1-0.4-1-1s0.4-1,1-1s1,0.4,1,1S15.1,5.5,14.5,5.5z"/>
<path d="M14.5,14.5c-1.1,0-2.5,0-2.5,0s1.4,0,0,0c0-1.4,0-1.9,0-2.5C13.4,12,14.5,13.1,14.5,14.5z"/>
<path d="M12,14.5c-1.1,0-2.5,0-2.5,0s1.4,0,0,0c0-1.4,0-1.9,0-2.5C10.9,12,12,13.1,12,14.5z"/>
</svg>